# xmcd CD database file
#
# Track frame offsets:
#	150
#	14026
#	35860
#	59041
#	78730
#	97479
#	120100
#	139108
#	157089
#	171893
#	184997
#	201404
#	220980
#	237392
#	250058
#	270998
#	286208
#	302348
#	314902
#
# Disc length: 4395 seconds
#
# Revision: 0
# Processed by: cddbd v1.5.2PL0 Copyright (c) Steve Scherf et al.
# Submitted via: ACXtractor (MTCDDB.DLL V2003.07.15)
#
DISCID=2b112913
DTITLE=Charley Landsborough - The Very Best of
DYEAR=2002
DGENRE=Country
TTITLE0=Further down the Road
TTITLE1=Song of the Ocean
TTITLE2=The Mountains of Mourne
TTITLE3=A Million ways to Fall
TTITLE4=My Forever Friend
TTITLE5=Come Next Year
TTITLE6=Love Love
TTITLE7=Shine Your Light
TTITLE8=You're Still Around
TTITLE9=Song of My Heart
TTITLE10=All Over but the Crying
TTITLE11=Lily of the Valley
TTITLE12=You and Me
TTITLE13=Constantly
TTITLE14=I Cried
TTITLE15=You're Not the Only One
TTITLE16=Fireside Dreaming
TTITLE17=Summer country Skies
TTITLE18=Close Your Eyes
EXTD=ID3G:   2 YEAR: 2002
EXTT0=
EXTT1=
EXTT2=
EXTT3=
EXTT4=
EXTT5=
EXTT6=
EXTT7=
EXTT8=
EXTT9=
EXTT10=
EXTT11=
EXTT12=
EXTT13=
EXTT14=
EXTT15=
EXTT16=
EXTT17=
EXTT18=
PLAYORDER=
